<?xml version="1.0" encoding="utf-8"?>
<!-- Generator: Adobe Illustrator 16.0.0, SVG Export Plug-In . SVG Version: 6.00 Build 0)  -->
<!DOCTYPE svg PUBLIC "-//W3C//DTD SVG 1.1//EN" "http://www.w3.org/Graphics/SVG/1.1/DTD/svg11.dtd">
<svg version="1.1" id="Layer_1" xmlns="http://www.w3.org/2000/svg" xmlns:xlink="http://www.w3.org/1999/xlink" x="0px" y="0px"
	 width="252px" height="57.6px" viewBox="0 0 252 57.6" enable-background="new 0 0 252 57.6" xml:space="preserve">
<text transform="matrix(1 0 0 1 4.5 18.2607)" fill="#121212" font-family="'MyriadHebrew-Regular'" font-size="12">language design</text>
<text transform="matrix(1 0 0 1 173.25 18.2607)" fill="#121212" font-family="'MyriadHebrew-Regular'" font-size="12">analysis design</text>
<g>
	
		<ellipse fill="none" stroke="#020100" stroke-width="0.7419" stroke-linejoin="round" stroke-miterlimit="10" cx="93.67" cy="7.962" rx="3.67" ry="3.462"/>
	
		<line fill="none" stroke="#020100" stroke-width="0.7419" stroke-linejoin="round" stroke-miterlimit="10" x1="93.67" y1="11.424" x2="93.813" y2="22.042"/>
	
		<line fill="none" stroke="#020100" stroke-width="0.7419" stroke-linejoin="round" stroke-miterlimit="10" x1="93.67" y1="15.326" x2="90" y2="18.042"/>
	
		<line fill="none" stroke="#020100" stroke-width="0.7419" stroke-linejoin="round" stroke-miterlimit="10" x1="93.813" y1="22.042" x2="90.144" y2="24.759"/>
	
		<line fill="none" stroke="#020100" stroke-width="0.7419" stroke-linejoin="round" stroke-miterlimit="10" x1="97.52" y1="25.011" x2="93.851" y2="22.295"/>
	
		<line fill="none" stroke="#020100" stroke-width="0.7419" stroke-linejoin="round" stroke-miterlimit="10" x1="97.541" y1="18.294" x2="93.871" y2="15.578"/>
</g>
<g>
	
		<ellipse fill="none" stroke="#020100" stroke-width="0.7419" stroke-linejoin="round" stroke-miterlimit="10" cx="165.67" cy="7.962" rx="3.67" ry="3.462"/>
	
		<line fill="none" stroke="#020100" stroke-width="0.7419" stroke-linejoin="round" stroke-miterlimit="10" x1="165.67" y1="11.424" x2="165.813" y2="22.042"/>
	
		<line fill="none" stroke="#020100" stroke-width="0.7419" stroke-linejoin="round" stroke-miterlimit="10" x1="165.67" y1="15.326" x2="162" y2="18.042"/>
	
		<line fill="none" stroke="#020100" stroke-width="0.7419" stroke-linejoin="round" stroke-miterlimit="10" x1="165.813" y1="22.042" x2="162.144" y2="24.759"/>
	
		<line fill="none" stroke="#020100" stroke-width="0.7419" stroke-linejoin="round" stroke-miterlimit="10" x1="169.52" y1="25.011" x2="165.851" y2="22.295"/>
	
		<line fill="none" stroke="#020100" stroke-width="0.7419" stroke-linejoin="round" stroke-miterlimit="10" x1="169.541" y1="18.294" x2="165.871" y2="15.578"/>
</g>
<g>
	
		<ellipse fill="none" stroke="#020100" stroke-width="0.7419" stroke-linejoin="round" stroke-miterlimit="10" cx="212.92" cy="30.462" rx="3.67" ry="3.462"/>
	
		<line fill="none" stroke="#020100" stroke-width="0.7419" stroke-linejoin="round" stroke-miterlimit="10" x1="212.92" y1="33.924" x2="213.063" y2="44.542"/>
	
		<line fill="none" stroke="#020100" stroke-width="0.7419" stroke-linejoin="round" stroke-miterlimit="10" x1="212.92" y1="37.826" x2="209.25" y2="40.542"/>
	
		<line fill="none" stroke="#020100" stroke-width="0.7419" stroke-linejoin="round" stroke-miterlimit="10" x1="213.063" y1="44.542" x2="209.394" y2="47.259"/>
	
		<line fill="none" stroke="#020100" stroke-width="0.7419" stroke-linejoin="round" stroke-miterlimit="10" x1="216.77" y1="47.511" x2="213.101" y2="44.795"/>
	
		<line fill="none" stroke="#020100" stroke-width="0.7419" stroke-linejoin="round" stroke-miterlimit="10" x1="216.791" y1="40.794" x2="213.121" y2="38.078"/>
</g>
<g>
	<g>
		<line fill="none" stroke="#888A8A" stroke-linejoin="round" x1="99" y1="13.761" x2="152.689" y2="13.761"/>
		<g>
			<polygon fill="#888A8A" points="159.75,13.761 149.801,17.827 152.162,13.761 149.801,9.697 			"/>
		</g>
	</g>
</g>
<g>
	<g>
		<path fill="none" stroke="#888A8A" stroke-linejoin="round" d="M185.142,29.632c2.747,12.654,13.999,22.118,27.483,22.118
			c15.546,0,28.125-12.579,28.125-28.125"/>
		<g>
			<path fill="#888A8A" d="M184.5,23.625c-0.704,2.946-2.065,6.66-3.693,9.058l4.515-2.28l4.927,1.136
				C188.095,29.599,185.887,26.318,184.5,23.625z"/>
		</g>
	</g>
</g>
</svg>
