<?xml version="1.0" encoding="utf-8"?>
<!-- Generator: Adobe Illustrator 16.0.0, SVG Export Plug-In . SVG Version: 6.00 Build 0)  -->
<!DOCTYPE svg PUBLIC "-//W3C//DTD SVG 1.1//EN" "http://www.w3.org/Graphics/SVG/1.1/DTD/svg11.dtd">
<svg version="1.1" id="Layer_1" xmlns="http://www.w3.org/2000/svg" xmlns:xlink="http://www.w3.org/1999/xlink" x="0px" y="0px"
	 width="252px" height="57.6px" viewBox="0 0 252 57.6" enable-background="new 0 0 252 57.6" xml:space="preserve">
<line fill="none" stroke="#888A8A" stroke-miterlimit="10" x1="189" y1="15.75" x2="216" y2="40.5"/>
<line fill="none" stroke="#888A8A" stroke-miterlimit="10" x1="168.75" y1="15.75" x2="141.75" y2="40.5"/>
<line fill="none" stroke="#888A8A" stroke-miterlimit="10" x1="177.75" y1="15.75" x2="177.75" y2="41"/>
<line fill="none" stroke="#888A8A" stroke-miterlimit="10" x1="54" y1="15.75" x2="74.25" y2="40.5"/>
<line fill="none" stroke="#888A8A" stroke-miterlimit="10" x1="47.25" y1="15.75" x2="27" y2="40.5"/>
<g>
	<path fill="#4A4C4B" d="M69.75,11.25c0,3.728-3.022,6.75-6.75,6.75H40.5c-3.728,0-6.75-3.022-6.75-6.75l0,0
		c0-3.728,3.022-6.75,6.75-6.75H63C66.728,4.5,69.75,7.522,69.75,11.25L69.75,11.25z"/>
	<text transform="matrix(1 0 0 1 38.25 13.5)" fill="#F1F2F1" font-family="'MyriadHebrew-Regular'" font-size="10">object</text>
</g>
<g>
	<path fill="#CACCCB" d="M47.25,45.125c0,3.729-3.022,6.75-6.75,6.75H11.25c-3.728,0-6.75-3.021-6.75-6.75l0,0
		c0-3.729,3.022-6.75,6.75-6.75H40.5C44.228,38.375,47.25,41.396,47.25,45.125L47.25,45.125z"/>
	<text transform="matrix(1 0 0 1 9 47.5)" fill="#4A4C4B" font-family="'MyriadHebrew-Regular'" font-size="10">method</text>
</g>
<g>
	<path fill="#CACCCB" d="M94.5,45c0,3.729-3.022,6.75-6.75,6.75H58.5c-3.728,0-6.75-3.021-6.75-6.75l0,0
		c0-3.729,3.022-6.75,6.75-6.75h29.25C91.478,38.25,94.5,41.271,94.5,45L94.5,45z"/>
	<text transform="matrix(1 0 0 1 56.25 47.375)" fill="#4A4C4B" font-family="'MyriadHebrew-Regular'" font-size="10">method</text>
</g>
<g>
	<path fill="#CACCCB" d="M153,45c0,3.729-3.021,6.75-6.75,6.75H117c-3.728,0-6.75-3.021-6.75-6.75l0,0c0-3.729,3.022-6.75,6.75-6.75
		h29.25C149.979,38.25,153,41.271,153,45L153,45z"/>
	<text transform="matrix(1 0 0 1 114.75 47.375)" fill="#4A4C4B" font-family="'MyriadHebrew-Regular'" font-size="10">method</text>
</g>
<g>
	<path fill="#CACCCB" d="M200.25,45c0,3.729-3.021,6.75-6.75,6.75h-29.25c-3.729,0-6.75-3.021-6.75-6.75l0,0
		c0-3.729,3.021-6.75,6.75-6.75h29.25C197.229,38.25,200.25,41.271,200.25,45L200.25,45z"/>
	<text transform="matrix(1 0 0 1 162 47.375)" fill="#4A4C4B" font-family="'MyriadHebrew-Regular'" font-size="10">method</text>
</g>
<g>
	<path fill="#CACCCB" d="M247.5,45c0,3.729-3.021,6.75-6.75,6.75H211.5c-3.729,0-6.75-3.021-6.75-6.75l0,0
		c0-3.729,3.021-6.75,6.75-6.75h29.25C244.479,38.25,247.5,41.271,247.5,45L247.5,45z"/>
	<text transform="matrix(1 0 0 1 209.25 47.375)" fill="#4A4C4B" font-family="'MyriadHebrew-Regular'" font-size="10">method</text>
</g>
<g>
	<path fill="#4A4C4B" d="M195.75,11.25c0,3.728-3.021,6.75-6.75,6.75h-22.5c-3.729,0-6.75-3.022-6.75-6.75l0,0
		c0-3.728,3.021-6.75,6.75-6.75H189C192.729,4.5,195.75,7.522,195.75,11.25L195.75,11.25z"/>
	<text transform="matrix(1 0 0 1 164.25 13.5)" fill="#F1F2F1" font-family="'MyriadHebrew-Regular'" font-size="10">object</text>
</g>
</svg>
