<?xml version="1.0" encoding="utf-8"?>
<!-- Generator: Adobe Illustrator 16.0.0, SVG Export Plug-In . SVG Version: 6.00 Build 0)  -->
<!DOCTYPE svg PUBLIC "-//W3C//DTD SVG 1.1//EN" "http://www.w3.org/Graphics/SVG/1.1/DTD/svg11.dtd">
<svg version="1.1" id="Layer_1" xmlns="http://www.w3.org/2000/svg" xmlns:xlink="http://www.w3.org/1999/xlink" x="0px" y="0px"
	 width="252px" height="74.25px" viewBox="0 0 252 74.25" enable-background="new 0 0 252 74.25" xml:space="preserve">
<line fill="none" stroke="#888A8A" stroke-miterlimit="10" x1="168.75" y1="15.75" x2="135" y2="40.5"/>
<line fill="none" stroke="#888A8A" stroke-miterlimit="10" x1="177.75" y1="15.75" x2="177.75" y2="41"/>
<line fill="none" stroke="#888A8A" stroke-miterlimit="10" x1="54" y1="15.75" x2="74.25" y2="40.5"/>
<line fill="none" stroke="#888A8A" stroke-miterlimit="10" x1="47.25" y1="15.75" x2="27" y2="40.5"/>
<line fill="none" stroke="#888A8A" stroke-miterlimit="10" x1="162" y1="14.25" x2="29.25" y2="39"/>
<line fill="none" stroke="#888A8A" stroke-miterlimit="10" x1="110.25" y1="15.75" x2="121.5" y2="40.5"/>
<line fill="none" stroke="#888A8A" stroke-miterlimit="10" x1="121.5" y1="15.75" x2="177.746" y2="40.5"/>
<line fill="none" stroke="#888A8A" stroke-miterlimit="10" x1="65.25" y1="15.75" x2="114.75" y2="42.75"/>
<line fill="none" stroke="#888A8A" stroke-miterlimit="10" x1="189" y1="15.75" x2="216" y2="40.5"/>
<g>
	<path fill="#4A4C4B" d="M69.75,11.25c0,3.728-3.022,6.75-6.75,6.75H40.5c-3.728,0-6.75-3.022-6.75-6.75l0,0
		c0-3.728,3.022-6.75,6.75-6.75H63C66.728,4.5,69.75,7.522,69.75,11.25L69.75,11.25z"/>
	<text transform="matrix(1 0 0 1 38.25 13.5)" fill="#F1F2F1" font-family="'MyriadHebrew-Regular'" font-size="10">object</text>
</g>
<g>
	<path fill="#CACCCB" d="M47.25,45.125c0,3.729-3.022,6.75-6.75,6.75H11.25c-3.728,0-6.75-3.021-6.75-6.75l0,0
		c0-3.729,3.022-6.75,6.75-6.75H40.5C44.228,38.375,47.25,41.396,47.25,45.125L47.25,45.125z"/>
	<text transform="matrix(1 0 0 1 9 47.5)" fill="#4A4C4B" font-family="'MyriadHebrew-Regular'" font-size="10">method</text>
</g>
<g>
	<path fill="#CACCCB" d="M94.5,45c0,3.729-3.022,6.75-6.75,6.75H58.5c-3.728,0-6.75-3.021-6.75-6.75l0,0
		c0-3.729,3.022-6.75,6.75-6.75h29.25C91.478,38.25,94.5,41.271,94.5,45L94.5,45z"/>
	<text transform="matrix(1 0 0 1 56.25 47.375)" fill="#4A4C4B" font-family="'MyriadHebrew-Regular'" font-size="10">method</text>
</g>
<g>
	<path fill="#CACCCB" d="M141.75,45c0,3.729-3.021,6.75-6.75,6.75h-29.25c-3.728,0-6.75-3.021-6.75-6.75l0,0
		c0-3.729,3.022-6.75,6.75-6.75H135C138.729,38.25,141.75,41.271,141.75,45L141.75,45z"/>
	<text transform="matrix(1 0 0 1 103.5 47.375)" fill="#4A4C4B" font-family="'MyriadHebrew-Regular'" font-size="10">method</text>
</g>
<g>
	<path fill="#CACCCB" d="M200.25,45c0,3.729-3.021,6.75-6.75,6.75h-29.25c-3.729,0-6.75-3.021-6.75-6.75l0,0
		c0-3.729,3.021-6.75,6.75-6.75h29.25C197.229,38.25,200.25,41.271,200.25,45L200.25,45z"/>
	<text transform="matrix(1 0 0 1 162 47.375)" fill="#4A4C4B" font-family="'MyriadHebrew-Regular'" font-size="10">method</text>
</g>
<g>
	<path fill="#CACCCB" d="M247.5,45c0,3.729-3.021,6.75-6.75,6.75H211.5c-3.729,0-6.75-3.021-6.75-6.75l0,0
		c0-3.729,3.021-6.75,6.75-6.75h29.25C244.479,38.25,247.5,41.271,247.5,45L247.5,45z"/>
	<text transform="matrix(1 0 0 1 209.25 47.375)" fill="#4A4C4B" font-family="'MyriadHebrew-Regular'" font-size="10">method</text>
</g>
<g>
	<path fill="#4A4C4B" d="M195.75,11.25c0,3.728-3.021,6.75-6.75,6.75h-22.5c-3.729,0-6.75-3.022-6.75-6.75l0,0
		c0-3.728,3.021-6.75,6.75-6.75H189C192.729,4.5,195.75,7.522,195.75,11.25L195.75,11.25z"/>
	<text transform="matrix(1 0 0 1 164.25 13.5)" fill="#F1F2F1" font-family="'MyriadHebrew-Regular'" font-size="10">object</text>
</g>
<g>
	<path fill="#4A4C4B" d="M128.25,11.25c0,3.728-3.021,6.75-6.75,6.75H99c-3.728,0-6.75-3.022-6.75-6.75l0,0
		c0-3.728,3.022-6.75,6.75-6.75h22.5C125.229,4.5,128.25,7.522,128.25,11.25L128.25,11.25z"/>
	<text transform="matrix(1 0 0 1 96.75 13.5)" fill="#F1F2F1" font-family="'MyriadHebrew-Regular'" font-size="10">object</text>
</g>
<g>
	<g>
		<polyline fill="none" stroke="#CACCCB" stroke-miterlimit="10" points="144,68.75 144,69.75 143,69.75 		"/>
		
			<line fill="none" stroke="#CACCCB" stroke-miterlimit="10" stroke-dasharray="2.0254,2.0254" x1="140.975" y1="69.75" x2="4.263" y2="69.75"/>
		<polyline fill="none" stroke="#CACCCB" stroke-miterlimit="10" points="3.25,69.75 2.25,69.75 2.25,68.75 		"/>
		
			<line fill="none" stroke="#CACCCB" stroke-miterlimit="10" stroke-dasharray="2.1167,2.1167" x1="2.25" y1="66.634" x2="2.25" y2="38.058"/>
		<polyline fill="none" stroke="#CACCCB" stroke-miterlimit="10" points="2.25,37 2.25,36 3.25,36 		"/>
		
			<line fill="none" stroke="#CACCCB" stroke-miterlimit="10" stroke-dasharray="2.0254,2.0254" x1="5.275" y1="36" x2="141.987" y2="36"/>
		<polyline fill="none" stroke="#CACCCB" stroke-miterlimit="10" points="143,36 144,36 144,37 		"/>
		
			<line fill="none" stroke="#CACCCB" stroke-miterlimit="10" stroke-dasharray="2.1167,2.1167" x1="144" y1="39.117" x2="144" y2="67.691"/>
	</g>
</g>
<g>
	<g>
		<polyline fill="none" stroke="#CACCCB" stroke-width="0.8165" stroke-miterlimit="10" points="249.75,68.934 249.75,69.75 
			248.934,69.75 		"/>
		
			<line fill="none" stroke="#CACCCB" stroke-width="0.8165" stroke-miterlimit="10" stroke-dasharray="1.6292,1.6292" x1="247.305" y1="69.75" x2="156.881" y2="69.75"/>
		<polyline fill="none" stroke="#CACCCB" stroke-width="0.8165" stroke-miterlimit="10" points="156.066,69.75 155.25,69.75 
			155.25,68.934 		"/>
		
			<line fill="none" stroke="#CACCCB" stroke-width="0.8165" stroke-miterlimit="10" stroke-dasharray="1.6904,1.6904" x1="155.25" y1="67.243" x2="155.25" y2="37.662"/>
		<polyline fill="none" stroke="#CACCCB" stroke-width="0.8165" stroke-miterlimit="10" points="155.25,36.816 155.25,36 
			156.066,36 		"/>
		
			<line fill="none" stroke="#CACCCB" stroke-width="0.8165" stroke-miterlimit="10" stroke-dasharray="1.6292,1.6292" x1="157.695" y1="36" x2="248.119" y2="36"/>
		<polyline fill="none" stroke="#CACCCB" stroke-width="0.8165" stroke-miterlimit="10" points="248.934,36 249.75,36 
			249.75,36.816 		"/>
		
			<line fill="none" stroke="#CACCCB" stroke-width="0.8165" stroke-miterlimit="10" stroke-dasharray="1.6904,1.6904" x1="249.75" y1="38.507" x2="249.75" y2="68.088"/>
	</g>
</g>
<text transform="matrix(1 0 0 1 38.25 65.25)" fill="#121212" font-family="'MyriadHebrew-Regular'" font-size="10">generic function</text>
<text transform="matrix(1 0 0 1 168.75 65.25)" fill="#121212" font-family="'MyriadHebrew-Regular'" font-size="10">generic function</text>
</svg>
